<svg xmlns="http://www.w3.org/2000/svg" viewBox="0 0 369.88 360.65"><defs><style>.cls-1{fill:#fff;}</style></defs><g id="Layer_2" data-name="Layer 2"><g id="Layer_1-2" data-name="Layer 1"><g id="Layer_2-2" data-name="Layer 2"><g id="Layer_1-2-2" data-name="Layer 1-2"><path class="cls-1" d="M218.52,266.38l8.7-1.17a106.78,106.78,0,0,0,40-13.47,63.73,63.73,0,0,0,28.18-33.21,109.25,109.25,0,0,0,6.34-25.24,132.66,132.66,0,0,0,1-21.92A68.63,68.63,0,0,0,285,127a2.66,2.66,0,0,1-.56-3.18,55.27,55.27,0,0,0,3.09-24.65,82.23,82.23,0,0,0-5.06-21.11c-.18-.48-.41-.95-.64-1.49a16.64,16.64,0,0,0-6-.64c-5.24.36-10.13,2-15,3.86A136.32,136.32,0,0,0,233,94.48a4.14,4.14,0,0,1-3.83.62,147.8,147.8,0,0,0-24.42-4.66A175.86,175.86,0,0,0,176,89.57a167.33,167.33,0,0,0-35.44,5.57,3.91,3.91,0,0,1-3.65-.68C126.32,87,114.63,81.8,102.37,77.75A28.28,28.28,0,0,0,90,76.14c-.74.09-1.46.26-2.2.4a86.13,86.13,0,0,0-4.61,15.8A66.74,66.74,0,0,0,82,106.79a53.82,53.82,0,0,0,3.48,17.38,2.12,2.12,0,0,1-.46,2.58,68.32,68.32,0,0,0-16.61,33.46,83,83,0,0,0-1.33,15.65q0,7.62.78,15.2a98.64,98.64,0,0,0,11.48,37.59c5.78,10.44,14.27,18.13,24.57,24a101.59,101.59,0,0,0,34.25,11.9c4.21.67,8.43,1.26,12.74,1.91a1.37,1.37,0,0,1-.26.51c-5.66,5.5-8.82,12.3-10.4,19.92-.23,1.13-.47,2.26-.62,3.4a1.56,1.56,0,0,1-1.09,1.37A44.1,44.1,0,0,1,126,295.25c-3.2.4-6.43.56-9.66.73-6.55.34-12.35-1.83-17.67-5.48A39.74,39.74,0,0,1,86.9,277.73a45.52,45.52,0,0,0-8.28-10.8,41.29,41.29,0,0,0-14.19-8.73,22.3,22.3,0,0,0-11.92-1,8.67,8.67,0,0,0-2.26.79,1.91,1.91,0,0,0-1,2.49,2.59,2.59,0,0,0,.14.29,14.11,14.11,0,0,0,1.41,2.37,17.68,17.68,0,0,0,6,5.14,27.77,27.77,0,0,1,7.64,6.16,64.81,64.81,0,0,1,12.36,20.87c4,11,12.09,17.46,22.93,20.73a71.68,71.68,0,0,0,11.89,2.09,74.48,74.48,0,0,0,15,.37c3.27-.25,6.52-.79,9.77-1.2.79-.1,1.58-.23,2.48-.36,0,.62.1,1.13.1,1.63.1,10.67.16,21.34.29,32a10.09,10.09,0,0,1-2.75,7.57,8.55,8.55,0,0,1-6.63,2.44,14.42,14.42,0,0,1-4.41-.7A178.89,178.89,0,0,1,62,323.16a192.27,192.27,0,0,1-41.28-52.93,175.74,175.74,0,0,1-17.52-50,189.27,189.27,0,0,1-2.61-20A195.54,195.54,0,0,1,.1,178.71a188.49,188.49,0,0,1,4.77-36.79A178.4,178.4,0,0,1,20.73,99.46,185.07,185.07,0,0,1,136.92,6.11a180.29,180.29,0,0,1,26.65-5A201.46,201.46,0,0,1,196.06.32a180.31,180.31,0,0,1,84.48,26.12,187,187,0,0,1,29.61,22.13,182.77,182.77,0,0,1,26.67,30.59,185.48,185.48,0,0,1,23.52,46.43,179.86,179.86,0,0,1,8.05,35.32,190.39,190.39,0,0,1,1.39,30A180.37,180.37,0,0,1,353.65,261a190.22,190.22,0,0,1-25.87,41.18A179.66,179.66,0,0,1,244.1,360a12.63,12.63,0,0,1-7,.27,8.63,8.63,0,0,1-6.12-7.41c-.08-.86-.07-1.73-.08-2.6V301.12a64,64,0,0,0-2.25-18,34.69,34.69,0,0,0-9.47-16A9.4,9.4,0,0,1,218.52,266.38Z"/></g></g></g></g></svg>