<svg xmlns="http://www.w3.org/2000/svg" viewBox="0 0 236.71 236.58"><defs><style>.cls-1{fill:#fff;}</style></defs><g id="Layer_2" data-name="Layer 2"><g id="Layer_1-2" data-name="Layer 1"><g id="Layer_2-2" data-name="Layer 2"><g id="Layer_1-2-2" data-name="Layer 1-2"><path class="cls-1" d="M1.34,171.24c.35-1.51-.56-2.83-.61-4.32C-.15,142.18,0,117.43,0,92.68c0-3.3.63-6.59.54-9.87-.12-4.33.21-8.63.26-13A101.47,101.47,0,0,1,1.89,59.53,74.38,74.38,0,0,1,6.65,40.39,61,61,0,0,1,27.21,13.74a64,64,0,0,1,19-9.37A69.3,69.3,0,0,1,59.58,1.55a67.91,67.91,0,0,1,9-.9C72.82.76,77-.48,81.18.23,83.61.63,86.07,0,88.51,0q29.73,0,59.5.07c3.36,0,6.72,0,10.06.06,3.87.14,7.76.48,11.63.7s7.48.83,11.2,1.36A66.09,66.09,0,0,1,197.9,7,57.75,57.75,0,0,1,215,18.13,60.18,60.18,0,0,1,228.76,37a75.46,75.46,0,0,1,6.34,23c.47,4.08.71,8.2,1,12.32.69,11,.58,22.11.59,33.15,0,14.5.11,29-.19,43.5a58.78,58.78,0,0,0,0,9c.22,1.68-.75,3.28-.57,4.9.46,4-.39,7.91-.78,11.84-1.26,12.61-4.88,24.41-12.47,34.75a58.75,58.75,0,0,1-21.1,18A80.89,80.89,0,0,1,181,234.18a69.36,69.36,0,0,1-8.14.88c-27.81,2.33-55.68,1.28-83.53,1.34-4.85,0-9.73-.62-14.62-.63a103.6,103.6,0,0,1-25.52-3.22c-18.3-4.67-31.85-15.44-40.46-32.2a68.37,68.37,0,0,1-6.88-24.76C1.7,174.13,1,172.74,1.34,171.24ZM167,213.73a80.42,80.42,0,0,0,17.31-2.62A39.77,39.77,0,0,0,203,199.41c5.73-6.35,8.63-14,10-22.26a100.9,100.9,0,0,0,1.26-17.87c-.09-6.52.45-13,.37-19.59-.18-15.84-.27-31.68.11-47.52.17-7.5-.29-15-.65-22.52a66.61,66.61,0,0,0-3.44-19.59c-5.69-15.77-17.44-23.9-33.5-26.54a135.87,135.87,0,0,0-20.26-1.27c-5.54-.07-11.09-.29-16.65-.29-14.5,0-29,.31-43.5-.21-9.4-.34-18.79.5-28.19.78a58.23,58.23,0,0,0-19.31,3.72,38.54,38.54,0,0,0-20,17c-3.88,6.64-5.4,14-6.08,21.5a236.1,236.1,0,0,0-.84,23.79c.24,19.89.08,39.78.07,59.67,0,2.62-.43,5.23-.25,7.87.27,3.9.38,7.82.65,11.72A76.35,76.35,0,0,0,24.61,181a43.23,43.23,0,0,0,5.32,13.21A39.29,39.29,0,0,0,42.12,206.5c8,5,17,6.58,26.2,7.21,7,.49,14,.51,21.06.47,18.85-.12,37.7-.06,56.55,0,2.68,0,5.36.55,8,.24C158.3,213.91,162.66,214.33,167,213.73Z"/><path class="cls-1" d="M118.44,57.22c33.28,0,60.73,27.4,60.9,60.46.16,33.57-27.64,61.39-60.84,61.24a61.1,61.1,0,0,1-60.67-54.46C54,84.9,86.57,56.76,118.44,57.22Zm39,61a39,39,0,1,0-39.06,39,39,39,0,0,0,39.06-39Z"/><path class="cls-1" d="M54.43,69.43c-7.89-.36-14-7.81-13.26-15.52A14.5,14.5,0,0,1,56.36,40.83a14.33,14.33,0,1,1-1.93,28.6Z"/></g></g></g></g></svg>