<svg xmlns="http://www.w3.org/2000/svg" viewBox="0 0 266.06 266.11"><defs><style>.cls-1{fill:#fff;}</style></defs><g id="Layer_2" data-name="Layer 2"><g id="Layer_1-2" data-name="Layer 1"><g id="Layer_2-2" data-name="Layer 2"><g id="Layer_1-2-2" data-name="Layer 1-2"><path class="cls-1" d="M8.85,85.75a74.47,74.47,0,0,1,4.76-11.23A133.28,133.28,0,0,1,120.09.69c.76-.08,1.53,0,2.29-.07s1.53.06,2.29,0c1.9-.13,3.86.41,5.71-.45a35,35,0,0,1,9.42.35,25.41,25.41,0,0,0,3.8.07,111.69,111.69,0,0,1,19,2.82A125.88,125.88,0,0,1,192.44,14q49.41,25.51,67.21,78.2a118.55,118.55,0,0,1,5.58,26.41,140.17,140.17,0,0,1,.79,18.44,133.07,133.07,0,0,1-99.6,124.71A124.24,124.24,0,0,1,144,265.55a9.37,9.37,0,0,1-1.06,0h-8.27l.88.45a82.13,82.13,0,0,1-11.63-.23,128.81,128.81,0,0,1-20.11-2.94A133.48,133.48,0,0,1,6.73,174.91,130,130,0,0,1,.81,147.33,131.9,131.9,0,0,1,.61,120,124.89,124.89,0,0,1,7.09,90.37c.36-.24,1.14-.16,1.05-.67C7.89,88.27,9.42,87.2,8.85,85.75ZM88.24,212.13c.26-.06.92.19.6-.4a4.4,4.4,0,0,1-.26-2.24V100c0-.64.24-1.34-.26-1.92L88,97.78c-.37-.38-.86-.27-1.3-.27H52.83c-.47,0-1-.19-1.47.44,1.36.13,1,1.12,1,1.93V209.7a3.16,3.16,0,0,1-.3,1.91c-.4.65.33.45.65.51ZM108.82,97.79c-.49.4-.26,1-.25,1.42,0,1.83.19,3.67.2,5.5.07,15.3,0,30.59.2,45.89q.12,10.86.07,21.71c-.38.5-.22,1.08-.22,1.62v35.15c0,.51.15,1.14-.1,1.5-.54.79-.14,1.14.45,1.52,11.34,0,22.67,0,34,.1,1.55,0,1.81-.48,1.81-1.89V173.85c0-.66.06-1.32.1-2,.79-.42.47-1.17.48-1.79V141.11a8.06,8.06,0,0,1,.6-3.73c4.37-10.31,11.55-14.5,22.25-12.75,7.74,1.26,11.89,7.5,13,15.39.71,4.79.3,9.67.47,14.5a8.31,8.31,0,0,0-.15,1v55.54c0,.19-.36.77.35.62a2.48,2.48,0,0,0,1.62.3h32.61c1.28,0,1.51-.44,1.51-1.59,0-7.14,0-14.28,0-21.43,0-4.38.1-8.77,0-13.16-.27-9.79-.12-19.58-.09-29.37.51-3.6.11-7.22.17-10.83,0-.46-.25.15-.42.16a75.5,75.5,0,0,0-3.7-15.56c-4-10.74-11.05-18.51-21.92-22.59a44.42,44.42,0,0,0-13.18-2.31,7.8,7.8,0,0,0-4.87,0,49,49,0,0,0-5.91.66c-10.42,1.87-18.86,6.84-24.84,15.7-.23.34-.49.65-.74,1a1,1,0,0,1-1.07.45c-.5-.1-.36-.57-.4-.87-.48-4.3-.94-8.59-1.41-12.88.35-1.61-.39-1.92-1.89-1.91-9.1.06-18.21,0-27.32,0C109.77,97.51,109.23,97.34,108.82,97.79ZM89.22,64.5c-.1-5.37-3.49-10.7-9.74-14.11C75.6,48.28,71.27,48.14,67,48.78c-7,1-12.1,4.68-14.37,11.44s-1,13.22,4.24,18.3c5.87,5.71,13,6.74,20.56,4.13S89.29,73.78,89.22,64.5Z"/></g></g></g></g></svg>