<svg xmlns="http://www.w3.org/2000/svg" viewBox="0 0 477.78 477.66"><g id="Layer_2" data-name="Layer 2"><g id="Layer_1-2" data-name="Layer 1"><path d="M209.74,425.33V475c0,1.84-.59,2.54-2.39,2.4s-3.49-.51-5.23-.77c-2.44-.38-4.89-.68-7.31-1.14s-4.58-1-6.86-1.52c-5.27-1.31-10.56-2.57-15.8-4-3.58-1-7.1-2.2-10.61-3.43-4.06-1.42-8.12-2.86-12.1-4.5-3.82-1.58-7.54-3.41-11.3-5.15-2.76-1.29-5.55-2.53-8.25-3.93-3.1-1.59-6.14-3.3-9.17-5-3.41-2-6.82-3.92-10.14-6-3.58-2.27-7.13-4.62-10.55-7.13C96.2,431.94,92.49,429,88.8,426c-2.92-2.37-5.81-4.78-8.6-7.3-3.76-3.41-7.36-7-11.12-10.42-4.17-3.8-7.65-8.2-11.26-12.5-2.36-2.81-4.92-5.48-7.14-8.41-3.76-5-7.43-10-10.91-15.2-3.22-4.79-6.24-9.71-9.13-14.7-2-3.51-3.74-7.21-5.48-10.89-2.46-5.17-4.91-10.36-7.19-15.62-1.81-4.16-3.49-8.38-5-12.66-1.7-4.87-3.18-9.82-4.66-14.76-.81-2.7-1.46-5.44-2.09-8.18s-1.11-5.59-1.71-8.38C4,284.62,3.34,282.33,2.94,280c-.46-2.67-.69-5.38-1-8.07-.24-1.87-.52-3.74-.74-5.61a89.4,89.4,0,0,1-1-11c0-8.58-.14-17.17-.18-25.76a89,89,0,0,1,.27-8.95c.39-4.07,1.08-8.11,1.59-12.16.17-1.38.08-2.79.31-4.15.42-2.62,1-5.21,1.49-7.82.38-2,.66-4,1.14-6C6.14,185,7.48,179.57,9,174.15c1.15-4.14,2.46-8.25,3.87-12.3,1.66-4.77,3.4-9.52,5.31-14.2,1.54-3.79,3.35-7.47,5.09-11.17,1.53-3.25,3-6.51,4.72-9.68,1.89-3.56,3.9-7,6-10.52q2.84-4.75,5.89-9.36c1.79-2.71,3.7-5.34,5.63-8,2.17-3,4.37-5.88,6.64-8.75,2-2.57,4.14-5.1,6.31-7.55,3-3.42,6-6.88,9.28-10.09,4.46-4.43,9.1-8.69,13.74-12.94,2.68-2.45,5.49-4.77,8.3-7.08,1.91-1.57,3.91-3,5.91-4.49,3.83-2.76,7.61-5.59,11.55-8.18q7.22-4.76,14.68-9.12c3.9-2.29,7.89-4.48,12-6.39,5.71-2.67,11.54-5.08,17.37-7.5,3.53-1.48,7.12-2.84,10.73-4.15,2.19-.8,4.45-1.39,6.68-2.1,1.34-.43,2.64-1,4-1.34,1.64-.47,3.32-.85,5-1.29,1.24-.32,2.47-.68,3.7-1,1.77-.47,3.52-1,5.31-1.39,3.54-.7,7.09-1.28,10.63-1.92,2.7-.49,5.39-1.06,8.1-1.5,1.82-.29,3.67-.45,5.51-.64,2.4-.26,4.79-.45,7.18-.73,12-1.43,24.08-.49,36.12-.67A75.83,75.83,0,0,1,263,1c2.43.26,4.86.48,7.29.77,1.71.2,3.42.52,5.13.76.93.13,1.88.16,2.81.32,3.28.58,6.56,1.14,9.82,1.8,1.95.39,3.87,1,5.8,1.42s3.58.79,5.36,1.21c1.36.32,2.72.65,4.07,1,2.62.76,5.24,1.52,7.83,2.37q4.39,1.44,8.73,3.07c4.72,1.78,9.45,3.57,14.12,5.49,3,1.21,5.85,2.63,8.76,4,2.65,1.25,5.3,2.5,7.9,3.84,2.23,1.14,4.39,2.42,6.58,3.64,2.52,1.41,5.08,2.75,7.54,4.26,3.27,2,6.51,4.12,9.67,6.31,3.82,2.64,7.64,5.3,11.28,8.17,4.66,3.67,9.31,7.39,13.68,11.39,5.28,4.83,10.39,9.87,15.36,15,3.47,3.61,6.62,7.55,9.85,11.4,2.9,3.47,5.79,7,8.54,10.55,2,2.55,3.75,5.24,5.52,7.93,2.26,3.43,4.45,6.91,6.6,10.41,1.8,2.94,3.6,5.89,5.21,8.93,2,3.74,3.81,7.55,5.57,11.39,2.61,5.7,5.24,11.39,7.61,17.19,1.62,3.94,2.82,8,4.17,12.08.85,2.52,1.67,5,2.45,7.58.37,1.19.57,2.43.9,3.63.57,2.15,1.24,4.28,1.75,6.44.45,1.9.7,3.85,1.11,5.76.44,2.1,1.05,4.17,1.43,6.28.48,2.66.79,5.35,1.2,8,.21,1.35.59,2.68.72,4s-.64,2.24-2.15,2.3c-.6,0-1.2,0-1.8,0q-48.9,0-97.8,0c-2.35,0-2.58-1-3.12-2.64s-1.08-3.59-1.61-5.38c-.43-1.46-.8-2.94-1.29-4.38-.71-2.05-1.51-4.07-2.27-6.11-.6-1.6-1.14-3.23-1.81-4.8a70.46,70.46,0,0,0-3-6.63c-2.94-5.41-5.8-10.88-9.08-16.08a91.23,91.23,0,0,0-10.19-13.32c-3-3.28-6-6.67-9.23-9.75a116.53,116.53,0,0,0-14.44-12.17c-4.47-3.05-9-6-13.63-8.83a85.12,85.12,0,0,0-8.27-4c-3-1.39-6-2.79-9.12-4-2.26-.9-4.64-1.52-7-2.25-1-.33-2.08-.68-3.13-1-3.24-.86-6.46-1.82-9.74-2.52-3.44-.73-6.94-1.24-10.42-1.8-2.76-.43-5.53-.79-8.29-1.18-.24,0-.48,0-.72,0-2.63-.07-5.26-.25-7.88-.21-4.57.08-9.16.11-13.71.51-4.38.38-8.73,1.15-13.07,1.88-2.34.39-4.63,1.07-6.94,1.6-2.89.67-5.82,1.24-8.67,2a50.62,50.62,0,0,0-5.12,2c-1.89.74-3.79,1.46-5.66,2.26-3,1.3-6,2.68-9,4-5.3,2.29-10.07,5.48-14.84,8.65-3.42,2.28-6.75,4.74-9.94,7.33a128.89,128.89,0,0,0-10.92,9.55c-4.07,4.15-7.81,8.65-11.56,13.11-2.17,2.57-4.2,5.29-6.11,8.07a93.21,93.21,0,0,0-5.13,8.31c-2.14,4-4.17,8-6,12.09-1.6,3.51-2.92,7.15-4.3,10.75-.81,2.12-1.58,4.25-2.24,6.42-.49,1.63-.78,3.33-1.17,5-.06.26-.13.53-.2.78a42.3,42.3,0,0,0-1.77,8.36c-.28,2.95-1,5.86-1.53,8.78a4.3,4.3,0,0,0-.09.47c-.24,4.64-.62,9.27-.68,13.91,0,3.89.17,7.79.47,11.67.22,2.93.75,5.85,1.15,8.77.32,2.41.57,4.83,1,7.23.31,1.76.86,3.47,1.3,5.21s.85,3.55,1.32,5.32c.43,1.62.9,3.22,1.36,4.83.31,1,.61,2.09,1,3.12A154.41,154.41,0,0,0,117,300.74,89,89,0,0,0,124,313c2.71,3.93,5.33,7.92,8.1,11.81a40.16,40.16,0,0,0,3.65,4.18c3.7,3.9,7.3,7.92,11.22,11.6,3.2,3,6.76,5.69,10.24,8.4,2.39,1.85,4.86,3.61,7.41,5.24s5.1,3.07,7.73,4.47c3.93,2.09,7.88,4.15,11.9,6,2.66,1.25,5.43,2.27,8.2,3.25,3.34,1.19,6.73,2.27,10.13,3.32a44.25,44.25,0,0,0,4.56,1,3.16,3.16,0,0,1,2.56,3c0,2.36,0,4.72,0,7.08Z"/><path d="M425.2,269.42h49a8.32,8.32,0,0,1,1.64.18,2.26,2.26,0,0,1,1.93,2.83c-.7,4.52-1.31,9.06-2.13,13.56-.6,3.25-1.43,6.45-2.24,9.66s-1.63,6.23-2.5,9.34c-1,3.44-1.92,6.88-3,10.29-.86,2.74-1.8,5.46-2.87,8.12-1.87,4.65-3.75,9.3-5.83,13.85-2.51,5.48-5,11-7.93,16.25-3.71,6.71-7.61,13.34-11.82,19.74-3.77,5.71-8,11.16-12.2,16.55-3.33,4.23-6.87,8.32-10.55,12.26-4.43,4.77-9,9.43-13.7,13.92-3.78,3.59-7.81,6.93-11.86,10.23-3.69,3-7.43,6-11.36,8.73q-8.67,6-17.65,11.48c-4.49,2.76-9.13,5.32-13.85,7.66-6.14,3-12.39,5.83-18.66,8.6-2.48,1.09-5.11,1.84-7.68,2.73-3.79,1.32-7.56,2.72-11.39,3.92-4.39,1.39-8.82,2.64-13.26,3.88-2.38.67-4.8,1.25-7.23,1.74s-5,.82-7.48,1.24-5.13.92-7.71,1.29a29.55,29.55,0,0,1-3.65.17,1.46,1.46,0,0,1-1.65-1.48c-.09-.94-.2-1.89-.2-2.84q0-48.42,0-96.83c0-.51.1-1,.11-1.54.05-1.84,1.42-2.4,2.82-2.84,3.89-1.23,7.85-2.26,11.7-3.61,4.27-1.5,8.54-3.07,12.65-4.95a119.85,119.85,0,0,0,10.68-5.8c3.66-2.16,7.27-4.43,10.78-6.83a100.18,100.18,0,0,0,8.37-6.41c3.63-3.09,7.25-6.23,10.58-9.63s6.2-7,9.22-10.57a128.42,128.42,0,0,0,12-17.34,121.05,121.05,0,0,0,5.72-11.17c1.35-2.88,2.48-5.87,3.61-8.85.94-2.5,1.8-5,2.6-7.59.7-2.25,1.33-4.53,1.87-6.82.46-1.95,1.49-3.16,3.89-3.15Q400.55,269.45,425.2,269.42Z"/></g></g></svg>