<svg xmlns="http://www.w3.org/2000/svg" viewBox="0 0 465.56 64.89"><g id="Layer_2" data-name="Layer 2"><g id="Layer_1-2" data-name="Layer 1"><path d="M191.19,52c0,3.61,0,7.28,0,11,0,1.55-.41,1.95-2,1.95q-2.1,0-4.2,0a1.53,1.53,0,0,1-1.74-1.75q0-22.14,0-44.27c0-.53,0-1,.71-1.13,5.15-1.21,10.31-2.16,15.65-1.66a16.73,16.73,0,0,1,15.51,15.56,25.45,25.45,0,0,1-1.31,11.65,15.18,15.18,0,0,1-16.36,10A63,63,0,0,1,191.19,52Zm0-18v7.17c0,3.19,0,3.25,3,4.28C199,47,204.63,46.14,206.41,40a18.81,18.81,0,0,0,.46-8.17c-.77-4.84-3.61-7.91-8-8.39a53.33,53.33,0,0,0-6.44.1c-1,0-1.29.39-1.27,1.37C191.22,27.89,191.19,30.91,191.19,33.94Z"/><path d="M266.22,35.69v15c0,1.49-.44,1.94-1.89,2h-4.67A1.44,1.44,0,0,1,258,51.07q0-22.12,0-44.26a1.26,1.26,0,0,1,.69-1c7.52-1.42,15.08-2,22.54.23,5.48,1.61,9.33,5,10.37,10.87,1.62,9.19-2.86,16-12,17.76a83.34,83.34,0,0,1-9.76,1C268.72,35.77,267.53,35.69,266.22,35.69Zm.06-7.43c2.49,0,4.85.12,7.2,0a21.65,21.65,0,0,0,5-.94c3.3-1.05,4.84-3.37,4.92-7s-1.43-6-4.59-7.23c-4.08-1.56-8.32-1-12.57-1Z"/><path d="M31,7.52c-.75,1.9-1.39,3.7-2.17,5.44-.4.91-1.19,1-2.1.57a20.07,20.07,0,0,0-10.59-1.94,11.2,11.2,0,0,0-3.47.82,5,5,0,0,0-1.23,8.76,30.18,30.18,0,0,0,5.66,3c2.7,1.28,5.53,2.3,8.18,3.67,4,2.08,6.68,5.3,7.26,9.91,1,7.79-2.58,13.1-10.28,15A32,32,0,0,1,.87,50.51C0,50.1-.19,49.66.19,48.78c.54-1.24,1-2.53,1.42-3.8S2.8,43.26,4.13,43.9A24,24,0,0,0,18.6,46c2.51-.41,4.74-1.33,5.39-4.18a6,6,0,0,0-2.95-7c-2.4-1.37-5.07-2.28-7.6-3.44a64.25,64.25,0,0,1-7-3.37c-7.84-4.82-7.07-17.92,1.64-22A21.86,21.86,0,0,1,17.64,4.2a28.34,28.34,0,0,1,11,2.09C29.43,6.63,30.17,7.08,31,7.52Z"/><path d="M307.27,1.09c2.21-.37,4.32-.76,6.44-1.07.93-.14,1.49.53,1.49,1.66,0,4.59,0,9.17,0,13.76v1.34a33.4,33.4,0,0,1,5.16-.74,29.43,29.43,0,0,1,7.45.77c5.58,1.56,8.11,5.83,8.64,11.28.36,3.76.27,7.56.32,11.35s0,7.58,0,11.36c0,1.43-.44,1.87-1.83,1.88h-4.2c-1.41,0-1.9-.5-1.9-2,0-5.9,0-11.8,0-17.7a26.14,26.14,0,0,0-.5-4.75c-.66-3.3-2.53-4.91-5.93-4.95a59.12,59.12,0,0,0-6.07.5c-.87.07-1.14.51-1.14,1.41,0,8.37,0,16.75,0,25.12,0,.28,0,.56,0,.84a1.37,1.37,0,0,1-1.49,1.48q-2.46,0-4.92,0a1.44,1.44,0,0,1-1.51-1.5c0-.23,0-.47,0-.71V1.09Z"/><path d="M56.21,29.52c2.47-2.59,5-5.17,7.41-7.78,1.37-1.45,2.65-3,4-4.42a2.24,2.24,0,0,1,1.4-.66c2-.08,3.91,0,5.87-.05.69,0,1.13.22,1.21.84a1.87,1.87,0,0,1-.27,1.31q-6,6.49-12.11,12.94l-1,1.1a8.54,8.54,0,0,0,.65.68,79.4,79.4,0,0,1,14,16.91c.32.5.63.92.2,1.61a1.42,1.42,0,0,1-1.48.69c-1.84,0-3.68-.06-5.52,0a1.73,1.73,0,0,1-1.71-1,59.53,59.53,0,0,0-11.7-13.67c-.33-.28-.67-.53-1.24-1V50.56c0,1.81-.32,2.12-2.18,2.12H49.64A1.47,1.47,0,0,1,48,51.09q0-24.81,0-49.63a2.35,2.35,0,0,1,.1-.38c2.09-.36,4.23-.8,6.39-1,.43,0,1,.74,1.4,1.22.15.2,0,.62,0,.94v27.2Z"/><path d="M119.89,37.13H96.75a8.43,8.43,0,0,0,7,8.63,21.13,21.13,0,0,0,10.86-.89c1.51-.54,2.14-.15,2.38,1.44a34.46,34.46,0,0,0,.6,3.66c.27,1-.14,1.35-1,1.66a26.83,26.83,0,0,1-11.89,1.65,23.54,23.54,0,0,1-5.84-1.16c-5.69-2-8.9-6.29-10.06-12.1a23.65,23.65,0,0,1,1.55-15.3C94.71,15.78,104.62,14,111.58,17c4.32,1.84,6.6,5.37,7.66,9.78A31.43,31.43,0,0,1,119.89,37.13Zm-8.22-6.93a6.88,6.88,0,0,0-6-7.39A8,8,0,0,0,96.9,30.2Z"/><path d="M166.45,37.11H143.31a8.39,8.39,0,0,0,6.94,8.64,21.17,21.17,0,0,0,11-.9c1.31-.48,2-.05,2.27,1.32s.32,2.61.63,3.89c.22.87-.09,1.22-.83,1.51a27.45,27.45,0,0,1-12,1.73,23.16,23.16,0,0,1-4.82-.83,14.63,14.63,0,0,1-10.39-9.9,23.48,23.48,0,0,1,.84-17.82C141.16,15.83,151,14,158.09,17a12.13,12.13,0,0,1,6.65,6.71C166.57,27.93,166.77,32.4,166.45,37.11Zm-8.22-6.9a6.94,6.94,0,0,0-6.41-7.44c-5.15-.35-8.15,4.06-8.35,7.44Z"/><path d="M465.56,34.68c-.33,5.58-1.78,10.59-5.88,14.56C452.57,56.16,438,55.45,433,43.43a22.54,22.54,0,0,1,0-17.58,16.6,16.6,0,0,1,31.29,1.94A65.81,65.81,0,0,1,465.56,34.68Zm-26.39-.08a50.3,50.3,0,0,0,1.68,6.74,7.44,7.44,0,0,0,7.35,5,7.55,7.55,0,0,0,7.55-4.86,16.63,16.63,0,0,0,0-13.59A7.56,7.56,0,0,0,448.31,23a7.43,7.43,0,0,0-7.41,4.87A48.37,48.37,0,0,0,439.17,34.6Z"/><path d="M365.46,51.41c-8-.21-17.49-7.95-18.17-18.59a20.62,20.62,0,0,1,21.87-21.91c12,.73,19,10.82,19.15,17.87-2.74,0-5.49,0-8.23-.05-.29,0-.69-.55-.83-.92-2.47-6.58-9.17-9.78-15.48-7.37a11.7,11.7,0,0,0-7.63,11.09,11.42,11.42,0,0,0,8,10.77,1.57,1.57,0,0,1,1.32,1.84C365.4,46.56,365.46,49,365.46,51.41Z"/><path d="M405.53,16.63h10.82c1.77,0,2.16.39,2.16,2.17,0,1,0,1.92,0,2.87,0,1.28-.53,1.81-1.8,1.81H405.6c0,.46-.07.85-.07,1.23,0,4.58,0,9.17,0,13.75a21.19,21.19,0,0,0,.53,4.49,3.71,3.71,0,0,0,3.78,3,13.6,13.6,0,0,0,6.57-1c1.39-.6,2.06-.21,2.39,1.24s.7,3,1.05,4.53a4.53,4.53,0,0,1,0,.58A38.78,38.78,0,0,1,413.94,53a26.19,26.19,0,0,1-7,0c-5.3-.76-8.35-4.17-9-9.66a42.28,42.28,0,0,1-.31-4.77c0-10.08,0-20.16,0-30.25,0-.31,0-.63,0-1.09,2.16-.36,4.29-.8,6.46-1.06.88-.1,1.44.53,1.43,1.5,0,2.47,0,4.95,0,7.42Z"/><path d="M370.5,51.4c0-2.74,0-5.41,0-8.08,0-.28.47-.71.8-.82a12.21,12.21,0,0,0,8-7.82c.11-.3.49-.69.75-.7,2.74,0,5.49,0,8.22,0C389.22,41.1,378.09,52.05,370.5,51.4Z"/><path d="M230.17,48.25a5.16,5.16,0,0,1,5.28-5.3,5.34,5.34,0,0,1,0,10.68A5.16,5.16,0,0,1,230.17,48.25Z"/></g></g></svg>