<svg xmlns="http://www.w3.org/2000/svg" viewBox="0 0 344.52 295.92"><defs><style>.cls-1{fill:#fff;}</style></defs><g id="Layer_2" data-name="Layer 2"><g id="Layer_1-2" data-name="Layer 1"><g id="Layer_2-2" data-name="Layer 2"><g id="Layer_1-2-2" data-name="Layer 1-2"><path class="cls-1" d="M156.32.25c31.12,0,62.25-.08,93.38.06,7.33,0,14.87-.14,21.94,1.43,23.75,5.29,40.88,27,41,51.24.09,18.09-.11,36.19-.21,54.28,0,5.48-2.3,9.72-7.5,11.87A11.41,11.41,0,0,1,292.37,117c-3.05-2.66-4-6.13-3.95-10.08.07-14.85.11-29.7,0-44.55A79.14,79.14,0,0,0,287.37,49c-2.68-14.79-11.06-22.47-25.95-24.09a105.29,105.29,0,0,0-11.22-.6q-93.76-.06-187.51,0A85,85,0,0,0,50.33,25c-16,2.41-24.43,11.74-25.67,28.25-.19,2.61-.24,5.24-.24,7.86V203a69.07,69.07,0,0,0,1.22,14.13c2.95,14,12.39,21.42,27.88,22.5,3.24.23,6.5.25,9.74.25h91.51c7.18,0,12,3.56,13.25,9.69a11.8,11.8,0,0,1-9.15,14,10.62,10.62,0,0,1-1.24.19c-1.49.14-3,.11-4.5.11-30,0-60-.13-90,.09-8,.06-15.93.49-23.78-1.71A54.11,54.11,0,0,1,.25,205c.13-1.36.15-2.73.15-4.11C.4,155,.51,109.05.3,63.14c0-8.49-.51-16.9,2.1-25.14A54.16,54.16,0,0,1,54.32,0h102Z"/><path class="cls-1" d="M192.44,266.21c0-5.86-.41-11.77.17-17.58.31-3.11,1.58-6.8,3.71-8.95q43.53-44.15,87.5-87.87c10.48-10.43,26-10.41,36.75-.26q8.3,7.86,16.18,16.14c10.23,10.72,10.47,26.25.06,36.71Q292.91,248.46,248.5,292a14.71,14.71,0,0,1-9,3.67c-11.48.43-23,.22-34.49.15-7.5,0-12.37-4.91-12.57-12.38v-.75Q192.43,274.45,192.44,266.21Zm99.24-50.83-18.25-18.3c-18.33,18.06-37,36.46-55.67,54.88a3.72,3.72,0,0,0-1.23,2.19c-.1,5.81-.06,11.62-.06,17.72,5.56,0,10.67.17,15.76-.1a7.92,7.92,0,0,0,4.79-2c13.56-13.29,27-26.7,40.44-40.09,5-5,9.86-9.93,14.22-14.3Zm18.68-17.55c2.83-3.09,6-6.26,8.74-9.75.69-.87.71-3.31,0-4.07-4.75-5.1-9.7-10-14.79-14.78a3.86,3.86,0,0,0-3.74-.14c-3.51,2.91-6.74,6.16-9.91,9.15Z"/><path class="cls-1" d="M155,148.31a27.66,27.66,0,0,1-15.35-5.57L62.1,86.41c-6.18-4.5-7.52-11.73-3.37-17.33s11.36-6.42,17.61-1.89q37.6,27.21,75.15,54.52c4.83,3.5,4.94,3.52,9.77,0L236.42,67.2c7.81-5.66,17.49-2.6,19.6,6.24,1.31,5.47-.84,9.72-5.3,13q-21.51,15.6-43,31.24L174.1,142.1A29.84,29.84,0,0,1,155,148.31Z"/></g></g></g></g></svg>