<svg xmlns="http://www.w3.org/2000/svg" viewBox="0 0 408.8 408.8"><defs><style>.cls-1{fill:#fff;}</style></defs><g id="Layer_2" data-name="Layer 2"><g id="Layer_1-2" data-name="Layer 1"><g id="Layer_2-2" data-name="Layer 2"><g id="Layer_1-2-2" data-name="Layer 1-2"><path class="cls-1" d="M0,387.24l28.45-81.09c1.89-5.39,5.31-10.81,5.22-16.17-.08-5.14-3.88-10.19-5.92-15.32-22.67-57-21.42-113.35,7-167.68,30-57.21,77.6-92.69,141.4-103.65,70.33-12.07,130.85,8.82,180,60.46,29.39,30.89,46.36,68.16,51.21,110.59,6.26,54.81-7.39,104.32-41.87,147.45-31.38,39.27-72.17,63.46-121.91,71.8q-62.85,10.5-120.3-17.57a8.82,8.82,0,0,0-7.48-.29Q69.53,392,23.22,408.09c-.33.11-.57.47-.86.71h-8C7.08,406.11,2.21,401.13,0,393.63Zm27.63-6.17c2-.63,3.26-1,4.48-1.41,26.58-9.29,53.19-18.52,79.73-27.94,6.44-2.29,12.46-2.1,18.44,1.14,1.87,1,3.8,1.92,5.72,2.83a170.84,170.84,0,0,0,75.66,16.75c43.32-.44,81.84-14.5,114-43.57C372,287.06,391,234.52,382.94,172.76c-4.91-37.4-21.21-69.89-48-96.47C290.49,32.2,236.84,15.67,175.58,27.7,123.31,38,84.11,67.86,58,114.19,39,148,32.9,184.45,38.19,222.84a166.26,166.26,0,0,0,17.22,54.45c3.64,7,4.19,13.75,1.26,21-2.23,5.54-4,11.25-6,16.89-7.61,21.73-15.18,43.41-23,65.89Z"/><path class="cls-1" d="M241.72,226.1c2.79-3,5.47-6.14,8.39-9,10.9-10.7,24.51-10.69,35.35,0q12.36,12.21,24.56,24.56c10.72,10.84,10.72,24.47,0,35.37-5.68,5.8-11.68,11.29-17.16,17.27-10.83,11.83-24.33,14.41-39.33,11.84-21.91-3.74-40.72-14.44-58.41-27.17-30.58-22-56.2-48.78-75.66-81.18-8-13.28-14.36-27.28-16.86-42.75-2.44-15,.19-28.49,12.05-39.27,5.9-5.36,11.3-11.27,17-16.87,11-10.87,24.65-10.83,35.67.09q12.18,12.08,24.27,24.27c10.88,11,10.87,24.59,0,35.63-2.8,2.84-5.79,5.48-8.8,8.3A145.54,145.54,0,0,0,241.72,226.1Zm25.42,7.29c-3.39,3.55-6.88,7.36-10.52,11-7.72,7.73-15.37,8.66-24.91,3.54a169.63,169.63,0,0,1-70.65-70.5c-5.37-10-4.45-17.46,3.65-25.54,3.56-3.55,7.24-7,10.37-10l-26.27-26.25c-5.68,5.69-11.49,11.91-17.75,17.65-4.62,4.24-5.82,9.21-5.2,15.09,1.16,10.92,5.25,20.86,10.46,30.32,19.92,36.18,48,64.75,82.44,87.23,11.39,7.44,23.51,13.46,37,16.35,8.3,1.79,15.83,1.22,21.5-6.29a56,56,0,0,1,6.45-6.52c3.42-3.27,6.91-6.48,10.1-9.45Z"/></g></g></g></g></svg>